<svg viewBox="0 0 100 100" version="1.1" style="fill-rule:evenodd;clip-rule:evenodd;stroke-linejoin:round;stroke-miterlimit:2;">
    <g>
        <circle cx="50" cy="18.252" r="15.49"/>
        <path id="main" d="M83.304,58.718c-1.701,-3.645 -4.17,-7.746 -6.133,-11.035c-3.169,-5.311 -6.682,-9.551 -14.048,-9.551c-2.485,0 -10.942,-0.001 -24.013,-0.001c-11.31,0 -15.398,11.718 -18.992,18.507c-2.736,5.167 -5.71,13.108 -5.951,17.519c-0.491,8.984 5.753,14.864 6.717,15.553c5.045,3.601 10.901,6.663 20.48,7.461c7.132,0.594 13.577,-2.862 14.235,-6.805c0.779,-4.681 -2.193,-7.942 -8.323,-7.666c-9.586,0.433 -15.791,-2.378 -17.664,-3.313c-4.731,-2.366 0.925,-2.278 2.124,-2.37c2.974,-0.229 5.948,-0.916 7.435,-2.174c1.524,-1.291 0.144,-0.893 -1.833,-7.071c-1.509,-4.711 0.666,-6.68 1.857,-7.07c2.936,-0.959 4.629,0.336 6.367,3.514c1.169,2.136 2.702,4.471 3.512,5.396c1.198,1.37 2.064,2.91 4.537,4.39c2.032,1.216 4.448,1.99 6.438,2.106c2.03,0.12 1.922,0.021 3.775,-0.304c-1.977,1.857 -8.813,6.65 -4.075,11.745c2.516,2.707 8.154,1.668 10.794,0.641c2.641,-1.027 7.187,-4.16 11.081,-8.984c7.54,-9.337 2.98,-17.702 1.68,-20.488Zm-21.384,15.23c-5.943,0 -10.762,-4.818 -10.762,-10.763c-0,-5.943 4.819,-10.762 10.762,-10.762c5.944,-0 10.762,4.819 10.762,10.762c-0.001,5.945 -4.818,10.763 -10.762,10.763Z" style="fill-rule:nonzero;"/>
    </g>
</svg>