<svg viewBox="0 0 100 100" version="1.1" style="fill-rule:evenodd;clip-rule:evenodd;stroke-linejoin:round;stroke-miterlimit:2;">
    <g>
        <path d="M28.22,36.437l30.03,0c6.461,0 11.283,3.826 13.746,9.652l11.331,29.261c3.073,7.937 -8.926,12.583 -12.001,4.647l-6.229,-16.088c-5.971,2.864 -19.711,1.936 -26.961,1.753l4.46,8.258c3.243,6.023 -2.426,11.354 -8.477,11.051l-24.337,0.003c-10.121,-0 -10.121,-15.304 -0,-15.304l8.527,0c-7.898,-4.072 -11.596,-15.595 -8.086,-23.652c2.371,-5.429 7.98,-9.581 17.997,-9.581Z" style="fill-rule:nonzero;"/>
        <path d="M82.538,15.017c8.43,-0 15.271,6.841 15.271,15.27c-0,8.429 -6.841,15.27 -15.271,15.27c-8.429,0 -15.27,-6.841 -15.27,-15.27c0,-8.429 6.841,-15.27 15.27,-15.27Z" style="fill-rule:nonzero;"/>
    </g>
</svg>