<svg viewBox="0 0 100 100" version="1.1" style="fill-rule:evenodd;clip-rule:evenodd;stroke-linejoin:round;stroke-miterlimit:2;">
    <path d="M36.619,15.805c0,-7.39 5.991,-13.381 13.381,-13.381c7.39,0 13.381,5.991 13.381,13.381c-0,7.39 -5.991,13.381 -13.381,13.381c-7.39,-0 -13.381,-5.991 -13.381,-13.381Zm47.321,0.255c-2.322,-2.322 -6.088,-2.322 -8.41,0l-16.099,16.099l-18.862,0l-16.099,-16.099c-2.322,-2.322 -6.088,-2.322 -8.41,0c-2.322,2.323 -2.322,6.088 0,8.41l17.586,17.586l-0,49.573c-0,3.284 2.662,5.947 5.947,5.947l2.973,-0c3.285,-0 5.947,-2.663 5.947,-5.947l0,-20.815l2.974,0l-0,20.815c-0,3.284 2.662,5.947 5.947,5.947l2.973,-0c3.285,-0 5.947,-2.663 5.947,-5.947l0,-49.573l17.586,-17.586c2.322,-2.322 2.322,-6.087 -0,-8.41Z" style="fill-rule:nonzero;"/>
</svg>