<svg viewBox="0 0 100 100" version="1.1" style="fill-rule:evenodd;clip-rule:evenodd;stroke-linejoin:round;stroke-miterlimit:2;">
    <g>
        <path d="M43.14,55.223c0,-5.102 -4.151,-9.253 -9.253,-9.253c-5.103,-0 -9.254,4.151 -9.254,9.253l5.616,0c0,-2.005 1.632,-3.637 3.638,-3.637c2.005,0 3.637,1.632 3.637,3.637l5.616,0Z" style="fill-rule:nonzero;"/>
        <path d="M66.113,45.97c-5.102,-0 -9.253,4.151 -9.253,9.253l5.616,0c0,-2.005 1.632,-3.637 3.637,-3.637c2.006,-0 3.638,1.632 3.638,3.637l5.616,0c0,-5.102 -4.151,-9.253 -9.254,-9.253Z" style="fill-rule:nonzero;"/>
        <path d="M50,71.657c-3.551,-0 -6.88,-1.904 -8.689,-4.97l-4.837,2.854c2.814,4.769 7.997,7.732 13.526,7.732c5.529,-0 10.712,-2.963 13.526,-7.732l-4.837,-2.854c-1.809,3.065 -5.138,4.97 -8.689,4.97Z" style="fill-rule:nonzero;"/>
        <path d="M94.272,45.276c-1.788,-1.786 -4.035,-2.968 -6.473,-3.43c-5.265,-16.27 -20.538,-27.473 -37.799,-27.473l-1.883,0c-4.521,0 -8.2,-3.678 -8.2,-8.199l-5.616,-0c0,3.068 1.006,5.904 2.705,8.199l-1.78,0c-4.521,0 -8.199,-3.678 -8.199,-8.199l-5.617,-0c0,6.102 3.978,11.289 9.476,13.113c-8.695,4.781 -15.51,12.747 -18.685,22.559c-2.438,0.462 -4.685,1.644 -6.475,3.432c-2.355,2.358 -3.652,5.491 -3.652,8.822c-0,3.29 1.269,6.394 3.574,8.741c1.801,1.834 4.076,3.044 6.553,3.513c5.265,16.27 20.538,27.472 37.799,27.472c17.261,0 32.534,-11.202 37.799,-27.472c2.477,-0.469 4.752,-1.679 6.553,-3.513c2.305,-2.347 3.574,-5.451 3.574,-8.741c0,-3.331 -1.297,-6.464 -3.654,-8.824Zm-8.685,15.68l-2.108,0.04l-0.55,2.035c-4.009,14.825 -17.55,25.179 -32.929,25.179c-15.379,-0 -28.92,-10.354 -32.929,-25.179l-0.55,-2.035l-2.108,-0.04c-3.707,-0.07 -6.723,-3.146 -6.723,-6.856c-0,-1.832 0.713,-3.555 2.007,-4.85c1.261,-1.26 2.936,-1.973 4.716,-2.006l2.108,-0.04l0.55,-2.035c4.009,-14.825 17.55,-25.179 32.929,-25.179c5.076,-0 9.205,4.129 9.205,9.205c0,5.076 -4.129,9.206 -9.205,9.206c-5.076,-0 -9.205,-4.13 -9.205,-9.205l-5.617,-0c0,8.172 6.649,14.821 14.822,14.821c8.173,0 14.822,-6.649 14.822,-14.821c-0,-2.326 -0.54,-4.528 -1.499,-6.489c9.42,4.007 16.818,12.153 19.606,22.462l0.55,2.035l2.108,0.04c1.78,0.033 3.454,0.746 4.714,2.004c1.296,1.297 2.009,3.02 2.009,4.852c-0,3.711 -3.016,6.786 -6.723,6.856Z" style="fill-rule:nonzero;"/>
    </g>
</svg>